# xmcd
#
# Track frame offsets: 
#        150
#        16530
#        33905
#
# Disc length: 917 seconds
#
# Revision: 0
# Processed by: cddbd v1.5.1PL2 Copyright (c) Steve Scherf et al.
# Submitted via: ExactAudioCopy v0.95a5
#
DISCID=11039303
DTITLE=TLC - Girl Talk (Single)
DYEAR=2002
DGENRE=Hip-Hop
TTITLE0=Girl Talk (Radio Mix)
TTITLE1=Girl Talk (Jacknife Lee Remix)
TTITLE2=Girl Talk (Kidstuff Vocal Mix)
EXTD=
EXTT0=
EXTT1=
EXTT2=
PLAYORDER=
